<svg width="23" height="23" viewBox="0 0 23 23" fill="none" xmlns="http://www.w3.org/2000/svg">
<path d="M10.6262 3.9639H4.15297C3.66245 3.9639 3.19202 4.15875 2.84517 4.5056C2.49832 4.85245 2.30347 5.32288 2.30347 5.8134V18.76C2.30347 19.2505 2.49832 19.7209 2.84517 20.0677C3.19202 20.4146 3.66245 20.6095 4.15297 20.6095H17.0995C17.59 20.6095 18.0605 20.4146 18.4073 20.0677C18.7542 19.7209 18.949 19.2505 18.949 18.76V12.2867M17.5619 2.57677C17.9298 2.20888 18.4288 2.0022 18.949 2.0022C19.4693 2.0022 19.9683 2.20888 20.3362 2.57677C20.704 2.94466 20.9107 3.44362 20.9107 3.9639C20.9107 4.48417 20.704 4.98314 20.3362 5.35103L11.551 14.1362L7.85199 15.0609L8.77674 11.3619L17.5619 2.57677Z" stroke="#757575" stroke-width="1.84951" stroke-linecap="round" stroke-linejoin="round"/>
</svg>
