<svg width="38" height="38" viewBox="0 0 38 38" fill="none" xmlns="http://www.w3.org/2000/svg">
<circle cx="18.8671" cy="18.8671" r="18.8671" fill="#F0F4FF"/>
<path d="M11.8333 27.1666C11.3062 27.1666 10.855 26.9789 10.4796 26.6036C10.1043 26.2282 9.91663 25.777 9.91663 25.2499V13.7499C9.91663 13.2228 10.1043 12.7716 10.4796 12.3963C10.855 12.0209 11.3062 11.8333 11.8333 11.8333H17.5833L19.5 13.7499H27.1666C27.6937 13.7499 28.1449 13.9376 28.5203 14.3129C28.8956 14.6883 29.0833 15.1395 29.0833 15.6666V25.2499C29.0833 25.777 28.8956 26.2282 28.5203 26.6036C28.1449 26.9789 27.6937 27.1666 27.1666 27.1666H11.8333ZM11.8333 25.2499H27.1666V15.6666H18.7093L16.7927 13.7499H11.8333V25.2499Z" fill="#FFA825"/>
</svg>
