<svg width="22" height="23" viewBox="0 0 22 23" fill="none" xmlns="http://www.w3.org/2000/svg">
<path d="M10.955 17.5405C10.5366 17.5405 10.1784 17.3915 9.88042 17.0935C9.58246 16.7956 9.43347 16.4374 9.43347 16.0189C9.43347 15.6005 9.58246 15.2423 9.88042 14.9444C10.1784 14.6464 10.5366 14.4974 10.955 14.4974C11.3734 14.4974 11.7316 14.6464 12.0296 14.9444C12.3276 15.2423 12.4766 15.6005 12.4766 16.0189C12.4766 16.4374 12.3276 16.7956 12.0296 17.0935C11.7316 17.3915 11.3734 17.5405 10.955 17.5405ZM10.955 12.9759C10.5366 12.9759 10.1784 12.8269 9.88042 12.5289C9.58246 12.2309 9.43347 11.8728 9.43347 11.4543C9.43347 11.0359 9.58246 10.6777 9.88042 10.3797C10.1784 10.0818 10.5366 9.93279 10.955 9.93279C11.3734 9.93279 11.7316 10.0818 12.0296 10.3797C12.3276 10.6777 12.4766 11.0359 12.4766 11.4543C12.4766 11.8728 12.3276 12.2309 12.0296 12.5289C11.7316 12.8269 11.3734 12.9759 10.955 12.9759ZM10.955 8.41125C10.5366 8.41125 10.1784 8.26226 9.88042 7.96429C9.58246 7.66632 9.43347 7.30813 9.43347 6.8897C9.43347 6.47128 9.58246 6.11309 9.88042 5.81512C10.1784 5.51715 10.5366 5.36816 10.955 5.36816C11.3734 5.36816 11.7316 5.51715 12.0296 5.81512C12.3276 6.11309 12.4766 6.47128 12.4766 6.8897C12.4766 7.30813 12.3276 7.66632 12.0296 7.96429C11.7316 8.26226 11.3734 8.41125 10.955 8.41125Z" fill="#757575"/>
</svg>
