<svg width="77" height="77" viewBox="0 0 77 77" fill="none" xmlns="http://www.w3.org/2000/svg">
<circle cx="38.5" cy="38.5" r="38.5" fill="white"/>
<path d="M38.9484 50.23C38.1728 50.23 37.5088 49.9538 36.9564 49.4015C36.4041 48.8491 36.1279 48.1851 36.1279 47.4095C36.1279 46.6339 36.4041 45.9699 36.9564 45.4176C37.5088 44.8652 38.1728 44.589 38.9484 44.589C39.724 44.589 40.388 44.8652 40.9403 45.4176C41.4927 45.9699 41.7689 46.6339 41.7689 47.4095C41.7689 48.1851 41.4927 48.8491 40.9403 49.4015C40.388 49.9538 39.724 50.23 38.9484 50.23ZM38.9484 41.7686C38.1728 41.7686 37.5088 41.4924 36.9564 40.9401C36.4041 40.3877 36.1279 39.7237 36.1279 38.9481C36.1279 38.1725 36.4041 37.5085 36.9564 36.9562C37.5088 36.4038 38.1728 36.1277 38.9484 36.1277C39.724 36.1277 40.388 36.4038 40.9403 36.9562C41.4927 37.5085 41.7689 38.1725 41.7689 38.9481C41.7689 39.7237 41.4927 40.3877 40.9403 40.9401C40.388 41.4924 39.724 41.7686 38.9484 41.7686ZM38.9484 33.3072C38.1728 33.3072 37.5088 33.031 36.9564 32.4787C36.4041 31.9263 36.1279 31.2624 36.1279 30.4867C36.1279 29.7111 36.4041 29.0471 36.9564 28.4948C37.5088 27.9424 38.1728 27.6663 38.9484 27.6663C39.724 27.6663 40.388 27.9424 40.9403 28.4948C41.4927 29.0471 41.7689 29.7111 41.7689 30.4867C41.7689 31.2624 41.4927 31.9263 40.9403 32.4787C40.388 33.031 39.724 33.3072 38.9484 33.3072Z" fill="#FFA825"/>
</svg>
