<svg width="78" height="81" viewBox="0 0 78 81" fill="none" xmlns="http://www.w3.org/2000/svg">
<rect width="78" height="81" rx="39" fill="#E0E0E0"/>
<path opacity="0.7" d="M37.6039 33.7923H31.6897C31.2416 33.7923 30.8118 33.9703 30.4949 34.2872C30.178 34.6041 30 35.0339 30 35.482V47.3103C30 47.7584 30.178 48.1882 30.4949 48.5051C30.8118 48.822 31.2416 49 31.6897 49H43.518C43.9661 49 44.3959 48.822 44.7128 48.5051C45.0297 48.1882 45.2077 47.7584 45.2077 47.3103V41.3961M43.9404 32.5249C44.2765 32.1888 44.7324 32 45.2077 32C45.6831 32 46.1389 32.1888 46.4751 32.5249C46.8112 32.8611 47 33.3169 47 33.7923C47 34.2676 46.8112 34.7235 46.4751 35.0596L38.4487 43.0859L35.0692 43.9308L35.9141 40.5513L43.9404 32.5249Z" stroke="#757575" stroke-width="1.68975" stroke-linecap="round" stroke-linejoin="round"/>
</svg>
